<mxfile host="Electron" modified="2023-04-22T08:32:16.703Z" agent="Mozilla/5.0 (Windows NT 10.0; Win64; x64) AppleWebKit/537.36 (KHTML, like Gecko) draw.io/21.2.1 Chrome/112.0.5615.87 Electron/24.1.2 Safari/537.36" etag="gmpirU7tOBRBXoBjq_p8" version="21.2.1" type="device">
  <diagram name="Page-1" id="NdvGHBpdpM2jrdEYSy6m">
    <mxGraphModel dx="2179" dy="1909" grid="0" gridSize="14" guides="1" tooltips="1" connect="1" arrows="1" fold="1" page="1" pageScale="1" pageWidth="850" pageHeight="1100" background="none" math="0" shadow="0">
      <root>
        <mxCell id="0" />
        <mxCell id="1" parent="0" />
        <mxCell id="vVLSoJHBKUACdnx8dhY2-1" value="&lt;div style=&quot;text-align: justify;&quot;&gt;&lt;span style=&quot;font-size: 15px; background-color: initial;&quot;&gt;Customer&lt;/span&gt;&lt;/div&gt;" style="rounded=0;whiteSpace=wrap;html=1;fillColor=#f5f5f5;fontColor=#333333;strokeColor=#666666;" parent="1" vertex="1">
          <mxGeometry x="640" y="140" width="120" height="60" as="geometry" />
        </mxCell>
        <mxCell id="vVLSoJHBKUACdnx8dhY2-2" value="&lt;div style=&quot;text-align: justify;&quot;&gt;&lt;span style=&quot;font-size: 15px; background-color: initial;&quot;&gt;Admin&lt;/span&gt;&lt;/div&gt;" style="rounded=0;whiteSpace=wrap;html=1;fillColor=#f5f5f5;fontColor=#333333;strokeColor=#666666;" parent="1" vertex="1">
          <mxGeometry x="80" y="140" width="120" height="60" as="geometry" />
        </mxCell>
        <mxCell id="vVLSoJHBKUACdnx8dhY2-3" value="&lt;font style=&quot;font-size: 12px;&quot;&gt;manage&lt;/font&gt;" style="rhombus;whiteSpace=wrap;html=1;" parent="1" vertex="1">
          <mxGeometry x="380" y="130" width="80" height="80" as="geometry" />
        </mxCell>
        <mxCell id="vVLSoJHBKUACdnx8dhY2-8" value="" style="endArrow=none;html=1;rounded=0;entryX=0;entryY=0.5;entryDx=0;entryDy=0;" parent="1" target="vVLSoJHBKUACdnx8dhY2-1" edge="1">
          <mxGeometry relative="1" as="geometry">
            <mxPoint x="460" y="170" as="sourcePoint" />
            <mxPoint x="620" y="170" as="targetPoint" />
          </mxGeometry>
        </mxCell>
        <mxCell id="vVLSoJHBKUACdnx8dhY2-9" value="M" style="resizable=0;html=1;whiteSpace=wrap;align=right;verticalAlign=bottom;" parent="vVLSoJHBKUACdnx8dhY2-8" connectable="0" vertex="1">
          <mxGeometry x="1" relative="1" as="geometry">
            <mxPoint x="-10" as="offset" />
          </mxGeometry>
        </mxCell>
        <mxCell id="vVLSoJHBKUACdnx8dhY2-10" value="user_name" style="ellipse;whiteSpace=wrap;html=1;align=center;fontStyle=4;" parent="1" vertex="1">
          <mxGeometry x="10" y="60" width="100" height="40" as="geometry" />
        </mxCell>
        <mxCell id="vVLSoJHBKUACdnx8dhY2-11" value="password" style="ellipse;whiteSpace=wrap;html=1;align=center;" parent="1" vertex="1">
          <mxGeometry x="140" y="60" width="100" height="40" as="geometry" />
        </mxCell>
        <mxCell id="vVLSoJHBKUACdnx8dhY2-12" value="phone_no" style="ellipse;whiteSpace=wrap;html=1;align=center;" parent="1" vertex="1">
          <mxGeometry x="520" y="30" width="70" height="40" as="geometry" />
        </mxCell>
        <mxCell id="vVLSoJHBKUACdnx8dhY2-13" value="id" style="ellipse;whiteSpace=wrap;html=1;align=center;fontStyle=4;" parent="1" vertex="1">
          <mxGeometry x="560" y="90" width="50" height="40" as="geometry" />
        </mxCell>
        <mxCell id="vVLSoJHBKUACdnx8dhY2-14" value="registered_date" style="ellipse;whiteSpace=wrap;html=1;align=center;" parent="1" vertex="1">
          <mxGeometry x="650" y="-80" width="100" height="40" as="geometry" />
        </mxCell>
        <mxCell id="vVLSoJHBKUACdnx8dhY2-15" value="address" style="ellipse;whiteSpace=wrap;html=1;align=center;" parent="1" vertex="1">
          <mxGeometry x="760" y="-40" width="90" height="40" as="geometry" />
        </mxCell>
        <mxCell id="vVLSoJHBKUACdnx8dhY2-16" value="nic" style="ellipse;whiteSpace=wrap;html=1;align=center;" parent="1" vertex="1">
          <mxGeometry x="810" y="90" width="60" height="40" as="geometry" />
        </mxCell>
        <mxCell id="vVLSoJHBKUACdnx8dhY2-17" value="email" style="ellipse;whiteSpace=wrap;html=1;align=center;" parent="1" vertex="1">
          <mxGeometry x="810" y="20" width="70" height="40" as="geometry" />
        </mxCell>
        <mxCell id="vVLSoJHBKUACdnx8dhY2-19" value="name" style="ellipse;whiteSpace=wrap;html=1;align=center;" parent="1" vertex="1">
          <mxGeometry x="560" y="-40" width="80" height="40" as="geometry" />
        </mxCell>
        <mxCell id="vVLSoJHBKUACdnx8dhY2-21" value="take" style="rhombus;whiteSpace=wrap;html=1;" parent="1" vertex="1">
          <mxGeometry x="100" y="320" width="80" height="80" as="geometry" />
        </mxCell>
        <mxCell id="vVLSoJHBKUACdnx8dhY2-22" value="&lt;div style=&quot;text-align: justify;&quot;&gt;&lt;span style=&quot;font-size: 15px; background-color: initial;&quot;&gt;Daily_Report&lt;/span&gt;&lt;/div&gt;" style="rounded=0;whiteSpace=wrap;html=1;fillColor=#f5f5f5;fontColor=#333333;strokeColor=#666666;" parent="1" vertex="1">
          <mxGeometry x="80" y="520" width="120" height="60" as="geometry" />
        </mxCell>
        <mxCell id="vVLSoJHBKUACdnx8dhY2-27" value="" style="shape=link;html=1;rounded=0;entryX=0.5;entryY=0;entryDx=0;entryDy=0;" parent="1" target="vVLSoJHBKUACdnx8dhY2-21" edge="1">
          <mxGeometry relative="1" as="geometry">
            <mxPoint x="140" y="200" as="sourcePoint" />
            <mxPoint x="300" y="200" as="targetPoint" />
          </mxGeometry>
        </mxCell>
        <mxCell id="vVLSoJHBKUACdnx8dhY2-28" value="1" style="resizable=0;html=1;whiteSpace=wrap;align=right;verticalAlign=bottom;" parent="vVLSoJHBKUACdnx8dhY2-27" connectable="0" vertex="1">
          <mxGeometry x="1" relative="1" as="geometry">
            <mxPoint x="20" y="-100" as="offset" />
          </mxGeometry>
        </mxCell>
        <mxCell id="vVLSoJHBKUACdnx8dhY2-29" value="" style="shape=link;html=1;rounded=0;entryX=1;entryY=0.5;entryDx=0;entryDy=0;exitX=0;exitY=0.5;exitDx=0;exitDy=0;" parent="1" source="vVLSoJHBKUACdnx8dhY2-3" target="vVLSoJHBKUACdnx8dhY2-2" edge="1">
          <mxGeometry relative="1" as="geometry">
            <mxPoint x="230" y="260" as="sourcePoint" />
            <mxPoint x="390" y="260" as="targetPoint" />
          </mxGeometry>
        </mxCell>
        <mxCell id="vVLSoJHBKUACdnx8dhY2-30" value="1" style="resizable=0;html=1;whiteSpace=wrap;align=right;verticalAlign=bottom;" parent="vVLSoJHBKUACdnx8dhY2-29" connectable="0" vertex="1">
          <mxGeometry x="1" relative="1" as="geometry">
            <mxPoint x="30" as="offset" />
          </mxGeometry>
        </mxCell>
        <mxCell id="vVLSoJHBKUACdnx8dhY2-31" value="" style="endArrow=none;html=1;rounded=0;entryX=0.5;entryY=0;entryDx=0;entryDy=0;" parent="1" target="vVLSoJHBKUACdnx8dhY2-22" edge="1">
          <mxGeometry relative="1" as="geometry">
            <mxPoint x="140" y="400" as="sourcePoint" />
            <mxPoint x="300" y="400" as="targetPoint" />
          </mxGeometry>
        </mxCell>
        <mxCell id="vVLSoJHBKUACdnx8dhY2-32" value="M" style="resizable=0;html=1;whiteSpace=wrap;align=right;verticalAlign=bottom;" parent="vVLSoJHBKUACdnx8dhY2-31" connectable="0" vertex="1">
          <mxGeometry x="1" relative="1" as="geometry">
            <mxPoint x="20" as="offset" />
          </mxGeometry>
        </mxCell>
        <mxCell id="vVLSoJHBKUACdnx8dhY2-33" value="id" style="ellipse;whiteSpace=wrap;html=1;align=center;fontStyle=4;" parent="1" vertex="1">
          <mxGeometry x="110" y="690" width="50" height="40" as="geometry" />
        </mxCell>
        <mxCell id="vVLSoJHBKUACdnx8dhY2-34" value="intime" style="ellipse;whiteSpace=wrap;html=1;align=center;" parent="1" vertex="1">
          <mxGeometry x="-130" y="630" width="100" height="40" as="geometry" />
        </mxCell>
        <mxCell id="vVLSoJHBKUACdnx8dhY2-35" value="index_number" style="ellipse;whiteSpace=wrap;html=1;align=center;" parent="1" vertex="1">
          <mxGeometry x="-80" y="440" width="100" height="40" as="geometry" />
        </mxCell>
        <mxCell id="vVLSoJHBKUACdnx8dhY2-36" value="license_plate" style="ellipse;whiteSpace=wrap;html=1;align=center;" parent="1" vertex="1">
          <mxGeometry x="-130" y="570" width="100" height="40" as="geometry" />
        </mxCell>
        <mxCell id="vVLSoJHBKUACdnx8dhY2-37" value="vehicle_type" style="ellipse;whiteSpace=wrap;html=1;align=center;" parent="1" vertex="1">
          <mxGeometry x="-110" y="510" width="100" height="40" as="geometry" />
        </mxCell>
        <mxCell id="vVLSoJHBKUACdnx8dhY2-38" value="outtime" style="ellipse;whiteSpace=wrap;html=1;align=center;" parent="1" vertex="1">
          <mxGeometry x="-80" y="680" width="100" height="40" as="geometry" />
        </mxCell>
        <mxCell id="vVLSoJHBKUACdnx8dhY2-39" value="date" style="ellipse;whiteSpace=wrap;html=1;align=center;" parent="1" vertex="1">
          <mxGeometry x="20" y="720" width="80" height="40" as="geometry" />
        </mxCell>
        <mxCell id="vVLSoJHBKUACdnx8dhY2-40" value="has" style="rhombus;whiteSpace=wrap;html=1;" parent="1" vertex="1">
          <mxGeometry x="380" y="330" width="80" height="70" as="geometry" />
        </mxCell>
        <mxCell id="vVLSoJHBKUACdnx8dhY2-41" value="&lt;div style=&quot;text-align: justify;&quot;&gt;&lt;span style=&quot;font-size: 15px; background-color: initial;&quot;&gt;Parked_Vehicle&lt;/span&gt;&lt;/div&gt;" style="rounded=0;whiteSpace=wrap;html=1;fillColor=#f5f5f5;fontColor=#333333;strokeColor=#666666;" parent="1" vertex="1">
          <mxGeometry x="360" y="520" width="120" height="60" as="geometry" />
        </mxCell>
        <mxCell id="vVLSoJHBKUACdnx8dhY2-45" value="" style="endArrow=none;html=1;rounded=0;entryX=0.5;entryY=0;entryDx=0;entryDy=0;" parent="1" target="vVLSoJHBKUACdnx8dhY2-40" edge="1">
          <mxGeometry relative="1" as="geometry">
            <mxPoint x="640" y="200" as="sourcePoint" />
            <mxPoint x="800" y="200" as="targetPoint" />
          </mxGeometry>
        </mxCell>
        <mxCell id="vVLSoJHBKUACdnx8dhY2-46" value="1" style="resizable=0;html=1;whiteSpace=wrap;align=right;verticalAlign=bottom;" parent="vVLSoJHBKUACdnx8dhY2-45" connectable="0" vertex="1">
          <mxGeometry x="1" relative="1" as="geometry">
            <mxPoint x="200" y="-120" as="offset" />
          </mxGeometry>
        </mxCell>
        <mxCell id="vVLSoJHBKUACdnx8dhY2-50" value="" style="shape=link;html=1;rounded=0;entryX=0.5;entryY=0;entryDx=0;entryDy=0;" parent="1" target="vVLSoJHBKUACdnx8dhY2-41" edge="1">
          <mxGeometry relative="1" as="geometry">
            <mxPoint x="420" y="400" as="sourcePoint" />
            <mxPoint x="580" y="400" as="targetPoint" />
          </mxGeometry>
        </mxCell>
        <mxCell id="vVLSoJHBKUACdnx8dhY2-51" value="1" style="resizable=0;html=1;whiteSpace=wrap;align=right;verticalAlign=bottom;" parent="vVLSoJHBKUACdnx8dhY2-50" connectable="0" vertex="1">
          <mxGeometry x="1" relative="1" as="geometry">
            <mxPoint x="-10" as="offset" />
          </mxGeometry>
        </mxCell>
        <mxCell id="vVLSoJHBKUACdnx8dhY2-52" value="id" style="ellipse;whiteSpace=wrap;html=1;align=center;fontStyle=4;" parent="1" vertex="1">
          <mxGeometry x="280" y="600" width="50" height="40" as="geometry" />
        </mxCell>
        <mxCell id="vVLSoJHBKUACdnx8dhY2-53" value="time" style="ellipse;whiteSpace=wrap;html=1;align=center;" parent="1" vertex="1">
          <mxGeometry x="270" y="660" width="70" height="40" as="geometry" />
        </mxCell>
        <mxCell id="vVLSoJHBKUACdnx8dhY2-54" value="slot_number" style="ellipse;whiteSpace=wrap;html=1;align=center;" parent="1" vertex="1">
          <mxGeometry x="280" y="720" width="100" height="40" as="geometry" />
        </mxCell>
        <mxCell id="vVLSoJHBKUACdnx8dhY2-55" value="licese_plate" style="ellipse;whiteSpace=wrap;html=1;align=center;" parent="1" vertex="1">
          <mxGeometry x="370" y="760" width="100" height="40" as="geometry" />
        </mxCell>
        <mxCell id="vVLSoJHBKUACdnx8dhY2-56" value="index_number" style="ellipse;whiteSpace=wrap;html=1;align=center;" parent="1" vertex="1">
          <mxGeometry x="470" y="720" width="100" height="40" as="geometry" />
        </mxCell>
        <mxCell id="vVLSoJHBKUACdnx8dhY2-57" value="vehicle_type" style="ellipse;whiteSpace=wrap;html=1;align=center;" parent="1" vertex="1">
          <mxGeometry x="490" y="660" width="100" height="40" as="geometry" />
        </mxCell>
        <mxCell id="vVLSoJHBKUACdnx8dhY2-58" value="date" style="ellipse;whiteSpace=wrap;html=1;align=center;" parent="1" vertex="1">
          <mxGeometry x="500" y="600" width="80" height="40" as="geometry" />
        </mxCell>
        <mxCell id="vVLSoJHBKUACdnx8dhY2-59" value="has" style="rhombus;whiteSpace=wrap;html=1;" parent="1" vertex="1">
          <mxGeometry x="630" y="515" width="80" height="70" as="geometry" />
        </mxCell>
        <mxCell id="vVLSoJHBKUACdnx8dhY2-60" value="Vehicle_Plate" style="rounded=0;whiteSpace=wrap;html=1;fillColor=#f5f5f5;fontColor=#333333;strokeColor=#666666;" parent="1" vertex="1">
          <mxGeometry x="850" y="520" width="120" height="60" as="geometry" />
        </mxCell>
        <mxCell id="vVLSoJHBKUACdnx8dhY2-61" value="register" style="rhombus;whiteSpace=wrap;html=1;" parent="1" vertex="1">
          <mxGeometry x="870" y="320" width="80" height="80" as="geometry" />
        </mxCell>
        <mxCell id="vVLSoJHBKUACdnx8dhY2-62" value="" style="shape=link;html=1;rounded=0;entryX=0.5;entryY=0;entryDx=0;entryDy=0;" parent="1" target="vVLSoJHBKUACdnx8dhY2-61" edge="1">
          <mxGeometry relative="1" as="geometry">
            <mxPoint x="760" y="200" as="sourcePoint" />
            <mxPoint x="880" y="320" as="targetPoint" />
          </mxGeometry>
        </mxCell>
        <mxCell id="vVLSoJHBKUACdnx8dhY2-63" value="1" style="resizable=0;html=1;whiteSpace=wrap;align=right;verticalAlign=bottom;" parent="vVLSoJHBKUACdnx8dhY2-62" connectable="0" vertex="1">
          <mxGeometry x="1" relative="1" as="geometry">
            <mxPoint x="-120" y="-110" as="offset" />
          </mxGeometry>
        </mxCell>
        <mxCell id="vVLSoJHBKUACdnx8dhY2-64" value="" style="shape=link;html=1;rounded=0;entryX=0.5;entryY=0;entryDx=0;entryDy=0;" parent="1" source="vVLSoJHBKUACdnx8dhY2-61" target="vVLSoJHBKUACdnx8dhY2-60" edge="1">
          <mxGeometry relative="1" as="geometry">
            <mxPoint x="880" y="405" as="sourcePoint" />
            <mxPoint x="880" y="520" as="targetPoint" />
          </mxGeometry>
        </mxCell>
        <mxCell id="vVLSoJHBKUACdnx8dhY2-65" value="M" style="resizable=0;html=1;whiteSpace=wrap;align=right;verticalAlign=bottom;" parent="vVLSoJHBKUACdnx8dhY2-64" connectable="0" vertex="1">
          <mxGeometry x="1" relative="1" as="geometry">
            <mxPoint x="20" y="-5" as="offset" />
          </mxGeometry>
        </mxCell>
        <mxCell id="vVLSoJHBKUACdnx8dhY2-66" value="" style="shape=link;html=1;rounded=0;" parent="1" edge="1">
          <mxGeometry relative="1" as="geometry">
            <mxPoint x="480" y="550" as="sourcePoint" />
            <mxPoint x="630" y="550" as="targetPoint" />
          </mxGeometry>
        </mxCell>
        <mxCell id="vVLSoJHBKUACdnx8dhY2-67" value="1" style="resizable=0;html=1;whiteSpace=wrap;align=right;verticalAlign=bottom;" parent="vVLSoJHBKUACdnx8dhY2-66" connectable="0" vertex="1">
          <mxGeometry x="1" relative="1" as="geometry">
            <mxPoint x="-130" as="offset" />
          </mxGeometry>
        </mxCell>
        <mxCell id="vVLSoJHBKUACdnx8dhY2-68" value="" style="shape=link;html=1;rounded=0;entryX=0;entryY=0.5;entryDx=0;entryDy=0;" parent="1" target="vVLSoJHBKUACdnx8dhY2-60" edge="1">
          <mxGeometry relative="1" as="geometry">
            <mxPoint x="710" y="550" as="sourcePoint" />
            <mxPoint x="820" y="550" as="targetPoint" />
          </mxGeometry>
        </mxCell>
        <mxCell id="vVLSoJHBKUACdnx8dhY2-69" value="1" style="resizable=0;html=1;whiteSpace=wrap;align=right;verticalAlign=bottom;" parent="vVLSoJHBKUACdnx8dhY2-68" connectable="0" vertex="1">
          <mxGeometry x="1" relative="1" as="geometry">
            <mxPoint x="-10" as="offset" />
          </mxGeometry>
        </mxCell>
        <mxCell id="vVLSoJHBKUACdnx8dhY2-71" value="vehicle_type" style="ellipse;whiteSpace=wrap;html=1;align=center;fontStyle=4;" parent="1" vertex="1">
          <mxGeometry x="760" y="620" width="100" height="40" as="geometry" />
        </mxCell>
        <mxCell id="vVLSoJHBKUACdnx8dhY2-72" value="license_plate" style="ellipse;whiteSpace=wrap;html=1;align=center;fontStyle=4;" parent="1" vertex="1">
          <mxGeometry x="860" y="680" width="100" height="40" as="geometry" />
        </mxCell>
        <mxCell id="vVLSoJHBKUACdnx8dhY2-73" value="index_number" style="ellipse;whiteSpace=wrap;html=1;align=center;fontStyle=4;" parent="1" vertex="1">
          <mxGeometry x="960" y="620" width="100" height="40" as="geometry" />
        </mxCell>
        <mxCell id="vVLSoJHBKUACdnx8dhY2-75" value="" style="endArrow=none;html=1;rounded=0;entryX=0.381;entryY=0.007;entryDx=0;entryDy=0;entryPerimeter=0;" parent="1" target="vVLSoJHBKUACdnx8dhY2-2" edge="1">
          <mxGeometry relative="1" as="geometry">
            <mxPoint x="50" y="100" as="sourcePoint" />
            <mxPoint x="210" y="100" as="targetPoint" />
          </mxGeometry>
        </mxCell>
        <mxCell id="vVLSoJHBKUACdnx8dhY2-76" value="" style="endArrow=none;html=1;rounded=0;entryX=0.5;entryY=0;entryDx=0;entryDy=0;" parent="1" target="vVLSoJHBKUACdnx8dhY2-2" edge="1">
          <mxGeometry relative="1" as="geometry">
            <mxPoint x="190" y="100" as="sourcePoint" />
            <mxPoint x="350" y="100" as="targetPoint" />
          </mxGeometry>
        </mxCell>
        <mxCell id="vVLSoJHBKUACdnx8dhY2-77" value="" style="endArrow=none;html=1;rounded=0;entryX=0.433;entryY=0.007;entryDx=0;entryDy=0;entryPerimeter=0;" parent="1" target="vVLSoJHBKUACdnx8dhY2-1" edge="1">
          <mxGeometry relative="1" as="geometry">
            <mxPoint x="610" y="110" as="sourcePoint" />
            <mxPoint x="770" y="110" as="targetPoint" />
          </mxGeometry>
        </mxCell>
        <mxCell id="vVLSoJHBKUACdnx8dhY2-78" value="" style="endArrow=none;html=1;rounded=0;" parent="1" edge="1">
          <mxGeometry relative="1" as="geometry">
            <mxPoint x="590" y="50" as="sourcePoint" />
            <mxPoint x="700" y="140" as="targetPoint" />
          </mxGeometry>
        </mxCell>
        <mxCell id="vVLSoJHBKUACdnx8dhY2-79" value="" style="endArrow=none;html=1;rounded=0;exitX=0.5;exitY=1;exitDx=0;exitDy=0;" parent="1" source="vVLSoJHBKUACdnx8dhY2-19" edge="1">
          <mxGeometry relative="1" as="geometry">
            <mxPoint x="580" as="sourcePoint" />
            <mxPoint x="700" y="140" as="targetPoint" />
          </mxGeometry>
        </mxCell>
        <mxCell id="vVLSoJHBKUACdnx8dhY2-80" value="" style="endArrow=none;html=1;rounded=0;entryX=0.5;entryY=0;entryDx=0;entryDy=0;exitX=0.5;exitY=1;exitDx=0;exitDy=0;" parent="1" source="vVLSoJHBKUACdnx8dhY2-14" target="vVLSoJHBKUACdnx8dhY2-1" edge="1">
          <mxGeometry relative="1" as="geometry">
            <mxPoint x="700" y="-50" as="sourcePoint" />
            <mxPoint x="860" y="-50" as="targetPoint" />
          </mxGeometry>
        </mxCell>
        <mxCell id="vVLSoJHBKUACdnx8dhY2-81" value="" style="endArrow=none;html=1;rounded=0;entryX=0.5;entryY=0;entryDx=0;entryDy=0;exitX=0.5;exitY=1;exitDx=0;exitDy=0;" parent="1" source="vVLSoJHBKUACdnx8dhY2-15" target="vVLSoJHBKUACdnx8dhY2-1" edge="1">
          <mxGeometry relative="1" as="geometry">
            <mxPoint x="820" as="sourcePoint" />
            <mxPoint x="980" as="targetPoint" />
          </mxGeometry>
        </mxCell>
        <mxCell id="vVLSoJHBKUACdnx8dhY2-82" value="" style="endArrow=none;html=1;rounded=0;entryX=0.5;entryY=0;entryDx=0;entryDy=0;exitX=0.5;exitY=1;exitDx=0;exitDy=0;" parent="1" source="vVLSoJHBKUACdnx8dhY2-17" target="vVLSoJHBKUACdnx8dhY2-1" edge="1">
          <mxGeometry relative="1" as="geometry">
            <mxPoint x="840" y="70" as="sourcePoint" />
            <mxPoint x="990" y="70" as="targetPoint" />
          </mxGeometry>
        </mxCell>
        <mxCell id="vVLSoJHBKUACdnx8dhY2-83" value="" style="endArrow=none;html=1;rounded=0;exitX=0;exitY=0.5;exitDx=0;exitDy=0;" parent="1" source="vVLSoJHBKUACdnx8dhY2-16" edge="1">
          <mxGeometry relative="1" as="geometry">
            <mxPoint x="810" y="130" as="sourcePoint" />
            <mxPoint x="710" y="140" as="targetPoint" />
          </mxGeometry>
        </mxCell>
        <mxCell id="vVLSoJHBKUACdnx8dhY2-84" value="" style="endArrow=none;html=1;rounded=0;entryX=0;entryY=0;entryDx=0;entryDy=0;exitX=1;exitY=1;exitDx=0;exitDy=0;" parent="1" source="vVLSoJHBKUACdnx8dhY2-35" target="vVLSoJHBKUACdnx8dhY2-22" edge="1">
          <mxGeometry relative="1" as="geometry">
            <mxPoint x="20" y="460" as="sourcePoint" />
            <mxPoint x="180" y="460" as="targetPoint" />
          </mxGeometry>
        </mxCell>
        <mxCell id="vVLSoJHBKUACdnx8dhY2-85" value="" style="endArrow=none;html=1;rounded=0;" parent="1" edge="1">
          <mxGeometry relative="1" as="geometry">
            <mxPoint x="-10" y="530" as="sourcePoint" />
            <mxPoint x="80" y="530" as="targetPoint" />
          </mxGeometry>
        </mxCell>
        <mxCell id="vVLSoJHBKUACdnx8dhY2-87" value="" style="endArrow=none;html=1;rounded=0;entryX=0;entryY=0.5;entryDx=0;entryDy=0;" parent="1" target="vVLSoJHBKUACdnx8dhY2-22" edge="1">
          <mxGeometry relative="1" as="geometry">
            <mxPoint x="-30" y="590" as="sourcePoint" />
            <mxPoint x="130" y="590" as="targetPoint" />
          </mxGeometry>
        </mxCell>
        <mxCell id="vVLSoJHBKUACdnx8dhY2-88" value="" style="endArrow=none;html=1;rounded=0;entryX=-0.017;entryY=0.883;entryDx=0;entryDy=0;entryPerimeter=0;exitX=1;exitY=0;exitDx=0;exitDy=0;" parent="1" source="vVLSoJHBKUACdnx8dhY2-34" target="vVLSoJHBKUACdnx8dhY2-22" edge="1">
          <mxGeometry relative="1" as="geometry">
            <mxPoint x="-30" y="650" as="sourcePoint" />
            <mxPoint x="130" y="650" as="targetPoint" />
          </mxGeometry>
        </mxCell>
        <mxCell id="vVLSoJHBKUACdnx8dhY2-89" value="" style="endArrow=none;html=1;rounded=0;entryX=0.117;entryY=1.05;entryDx=0;entryDy=0;entryPerimeter=0;exitX=1;exitY=0;exitDx=0;exitDy=0;" parent="1" source="vVLSoJHBKUACdnx8dhY2-38" target="vVLSoJHBKUACdnx8dhY2-22" edge="1">
          <mxGeometry relative="1" as="geometry">
            <mxPoint x="10" y="710" as="sourcePoint" />
            <mxPoint x="170" y="710" as="targetPoint" />
          </mxGeometry>
        </mxCell>
        <mxCell id="vVLSoJHBKUACdnx8dhY2-90" value="" style="endArrow=none;html=1;rounded=0;entryX=0.333;entryY=1;entryDx=0;entryDy=0;entryPerimeter=0;exitX=0.5;exitY=0;exitDx=0;exitDy=0;" parent="1" source="vVLSoJHBKUACdnx8dhY2-39" target="vVLSoJHBKUACdnx8dhY2-22" edge="1">
          <mxGeometry relative="1" as="geometry">
            <mxPoint x="50" y="770" as="sourcePoint" />
            <mxPoint x="210" y="770" as="targetPoint" />
          </mxGeometry>
        </mxCell>
        <mxCell id="vVLSoJHBKUACdnx8dhY2-92" value="" style="endArrow=none;html=1;rounded=0;entryX=0.5;entryY=1;entryDx=0;entryDy=0;exitX=0.5;exitY=0;exitDx=0;exitDy=0;" parent="1" source="vVLSoJHBKUACdnx8dhY2-33" target="vVLSoJHBKUACdnx8dhY2-22" edge="1">
          <mxGeometry relative="1" as="geometry">
            <mxPoint x="80" y="790" as="sourcePoint" />
            <mxPoint x="240" y="790" as="targetPoint" />
          </mxGeometry>
        </mxCell>
        <mxCell id="vVLSoJHBKUACdnx8dhY2-94" value="" style="endArrow=none;html=1;rounded=0;entryX=0.25;entryY=1;entryDx=0;entryDy=0;exitX=1;exitY=0;exitDx=0;exitDy=0;" parent="1" source="vVLSoJHBKUACdnx8dhY2-52" target="vVLSoJHBKUACdnx8dhY2-41" edge="1">
          <mxGeometry relative="1" as="geometry">
            <mxPoint x="320" y="600" as="sourcePoint" />
            <mxPoint x="480" y="600" as="targetPoint" />
          </mxGeometry>
        </mxCell>
        <mxCell id="vVLSoJHBKUACdnx8dhY2-95" value="" style="endArrow=none;html=1;rounded=0;entryX=0.358;entryY=1.033;entryDx=0;entryDy=0;entryPerimeter=0;exitX=1;exitY=0;exitDx=0;exitDy=0;" parent="1" source="vVLSoJHBKUACdnx8dhY2-53" target="vVLSoJHBKUACdnx8dhY2-41" edge="1">
          <mxGeometry relative="1" as="geometry">
            <mxPoint x="340" y="680" as="sourcePoint" />
            <mxPoint x="500" y="680" as="targetPoint" />
          </mxGeometry>
        </mxCell>
        <mxCell id="vVLSoJHBKUACdnx8dhY2-96" value="" style="endArrow=none;html=1;rounded=0;" parent="1" edge="1">
          <mxGeometry relative="1" as="geometry">
            <mxPoint x="340" y="720" as="sourcePoint" />
            <mxPoint x="410" y="580" as="targetPoint" />
          </mxGeometry>
        </mxCell>
        <mxCell id="vVLSoJHBKUACdnx8dhY2-97" value="" style="endArrow=none;html=1;rounded=0;entryX=0.5;entryY=1;entryDx=0;entryDy=0;exitX=0.5;exitY=0;exitDx=0;exitDy=0;" parent="1" source="vVLSoJHBKUACdnx8dhY2-55" target="vVLSoJHBKUACdnx8dhY2-41" edge="1">
          <mxGeometry relative="1" as="geometry">
            <mxPoint x="410" y="760" as="sourcePoint" />
            <mxPoint x="410" y="580" as="targetPoint" />
          </mxGeometry>
        </mxCell>
        <mxCell id="vVLSoJHBKUACdnx8dhY2-98" value="" style="endArrow=none;html=1;rounded=0;entryX=0.567;entryY=1.033;entryDx=0;entryDy=0;entryPerimeter=0;exitX=0.06;exitY=0.275;exitDx=0;exitDy=0;exitPerimeter=0;" parent="1" source="vVLSoJHBKUACdnx8dhY2-56" target="vVLSoJHBKUACdnx8dhY2-41" edge="1">
          <mxGeometry relative="1" as="geometry">
            <mxPoint x="460" y="730" as="sourcePoint" />
            <mxPoint x="620" y="730" as="targetPoint" />
          </mxGeometry>
        </mxCell>
        <mxCell id="vVLSoJHBKUACdnx8dhY2-99" value="" style="endArrow=none;html=1;rounded=0;entryX=0.658;entryY=1.017;entryDx=0;entryDy=0;entryPerimeter=0;exitX=0;exitY=0;exitDx=0;exitDy=0;" parent="1" source="vVLSoJHBKUACdnx8dhY2-57" target="vVLSoJHBKUACdnx8dhY2-41" edge="1">
          <mxGeometry relative="1" as="geometry">
            <mxPoint x="490" y="660" as="sourcePoint" />
            <mxPoint x="650" y="660" as="targetPoint" />
          </mxGeometry>
        </mxCell>
        <mxCell id="vVLSoJHBKUACdnx8dhY2-100" value="" style="endArrow=none;html=1;rounded=0;entryX=0;entryY=0;entryDx=0;entryDy=0;" parent="1" target="vVLSoJHBKUACdnx8dhY2-58" edge="1">
          <mxGeometry relative="1" as="geometry">
            <mxPoint x="450" y="580" as="sourcePoint" />
            <mxPoint x="610" y="580" as="targetPoint" />
          </mxGeometry>
        </mxCell>
        <mxCell id="vVLSoJHBKUACdnx8dhY2-101" value="" style="endArrow=none;html=1;rounded=0;entryX=0.417;entryY=1.017;entryDx=0;entryDy=0;entryPerimeter=0;" parent="1" target="vVLSoJHBKUACdnx8dhY2-60" edge="1">
          <mxGeometry relative="1" as="geometry">
            <mxPoint x="810" y="620" as="sourcePoint" />
            <mxPoint x="896" y="583" as="targetPoint" />
          </mxGeometry>
        </mxCell>
        <mxCell id="vVLSoJHBKUACdnx8dhY2-102" value="" style="endArrow=none;html=1;rounded=0;entryX=0.5;entryY=1;entryDx=0;entryDy=0;" parent="1" target="vVLSoJHBKUACdnx8dhY2-60" edge="1">
          <mxGeometry relative="1" as="geometry">
            <mxPoint x="910" y="680" as="sourcePoint" />
            <mxPoint x="1070" y="680" as="targetPoint" />
          </mxGeometry>
        </mxCell>
        <mxCell id="vVLSoJHBKUACdnx8dhY2-103" value="" style="endArrow=none;html=1;rounded=0;entryX=0.633;entryY=1.05;entryDx=0;entryDy=0;entryPerimeter=0;" parent="1" target="vVLSoJHBKUACdnx8dhY2-60" edge="1">
          <mxGeometry relative="1" as="geometry">
            <mxPoint x="1010" y="620" as="sourcePoint" />
            <mxPoint x="1170" y="620" as="targetPoint" />
          </mxGeometry>
        </mxCell>
      </root>
    </mxGraphModel>
  </diagram>
</mxfile>
